<mxfile host="app.diagrams.net" modified="2023-03-10T02:12:05.659Z" agent="5.0 (Macintosh)" etag="yECF6mbIONmMYAZazhNa" version="21.0.6" type="github">
  <diagram name="Page-1" id="3k8U0uEZYpOsReZs5BAy">
    <mxGraphModel dx="1434" dy="794" grid="1" gridSize="10" guides="1" tooltips="1" connect="1" arrows="1" fold="1" page="1" pageScale="1" pageWidth="827" pageHeight="1169" math="0" shadow="0">
      <root>
        <mxCell id="0" />
        <mxCell id="1" parent="0" />
        <mxCell id="o0x-ktyC_i7G5qN_ZV2j-1" value="Ene" style="rounded=0;whiteSpace=wrap;html=1;" vertex="1" parent="1">
          <mxGeometry x="480" y="200" width="120" height="60" as="geometry" />
        </mxCell>
      </root>
    </mxGraphModel>
  </diagram>
</mxfile>
